<svg width="66" height="66" viewBox="0 0 66 66" fill="none" xmlns="http://www.w3.org/2000/svg">
<path fill-rule="evenodd" clip-rule="evenodd" d="M33 66C14.7746 66 0 51.2254 0 33C0 14.7746 14.7746 0 33 0C51.2254 0 66 14.7746 66 33C66 51.2254 51.2254 66 33 66ZM33 60C47.9117 60 60 47.9117 60 33C60 18.0883 47.9117 6 33 6C18.0883 6 6 18.0883 6 33C6 47.9117 18.0883 60 33 60ZM18.8788 36.8787L23.1215 41.1214L33.0002 31.2427L42.8788 41.1214L47.1215 36.8787L33.0002 22.7574L18.8788 36.8787Z" fill="white"/>
</svg>
