<svg width="98" height="98" viewBox="0 0 98 98" fill="none" xmlns="http://www.w3.org/2000/svg">
<g clip-path="url(#clip0)">
<path d="M35.9377 35.9343C34.1347 35.9343 32.6713 34.4644 32.6713 32.6678C32.6713 30.8713 34.1347 29.4014 35.9377 29.4014H42.4706C44.2737 29.4014 45.737 27.938 45.737 26.135C45.737 24.3319 44.2737 22.8685 42.4706 22.8685H39.2042V19.6021C39.2042 17.799 37.7408 16.3356 35.9377 16.3356C34.1347 16.3356 32.6713 17.799 32.6713 19.6021V23.4695C28.8757 24.8218 26.1384 28.4149 26.1384 32.6678C26.1384 38.0705 30.535 42.4671 35.9377 42.4671C37.7408 42.4671 39.2042 43.937 39.2042 45.7336C39.2042 47.5301 37.7408 49 35.9377 49H29.4049C27.6018 49 26.1384 50.4634 26.1384 52.2664C26.1384 54.0695 27.6018 55.5329 29.4049 55.5329H32.6713V58.7993C32.6713 60.6024 34.1347 62.0657 35.9377 62.0657C37.7408 62.0657 39.2042 60.6024 39.2042 58.7993V54.9318C42.9998 53.5795 45.737 49.9865 45.737 45.7336C45.737 40.3309 41.3404 35.9343 35.9377 35.9343Z" fill="#DB0011"/>
<path d="M35.9376 3.26991C16.1234 3.26991 0.00683594 19.393 0.00683594 39.2007C0.00683594 52.9851 7.68949 65.3256 20.0562 71.4078C20.52 71.6299 21.01 71.7409 21.4934 71.7409C22.702 71.7409 23.8583 71.068 24.4267 69.9183C25.2237 68.2981 24.5574 66.3382 22.9372 65.5412C12.8243 60.5697 6.53971 50.483 6.53971 39.2007C6.53971 22.9926 19.7296 9.80278 35.9376 9.80278C52.1457 9.80278 65.3355 22.9926 65.3355 39.2007C65.3355 48.9608 60.4947 58.0872 52.3874 63.614C50.8979 64.6266 50.5125 66.6649 51.5316 68.1478C52.5507 69.6439 54.5824 70.0228 56.0719 69.0102C65.9627 62.2617 71.8684 51.1232 71.8684 39.2007C71.8684 19.393 55.7518 3.26991 35.9376 3.26991Z" fill="#DB0011"/>
<path d="M94.7336 55.5329H75.135C73.3319 55.5329 71.8686 56.9962 71.8686 58.7993C71.8686 60.6024 73.3319 62.0657 75.135 62.0657H86.5087L64.8327 81.0241L40.661 68.9383C39.7072 68.4614 38.5705 68.481 37.6363 68.9971L1.70552 88.5957C0.118035 89.4581 -0.46339 91.4441 0.398949 93.025C0.999973 94.116 2.11709 94.7301 3.27341 94.7301C3.80257 94.7301 4.33827 94.5994 4.83477 94.3251L39.2695 75.5496L63.8723 87.851C65.0548 88.4324 66.4855 88.2626 67.485 87.3871L91.4672 66.4036V78.3979C91.4672 80.201 92.9305 81.6644 94.7336 81.6644C96.5367 81.6644 98 80.201 98 78.3979V58.7993C98 56.9962 96.5367 55.5329 94.7336 55.5329Z" fill="#DB0011"/>
</g>
<defs>
<clipPath id="clip0">
<rect width="98" height="98" fill="white"/>
</clipPath>
</defs>
</svg>
