<svg width="98" height="98" viewBox="0 0 98 98" fill="none" xmlns="http://www.w3.org/2000/svg">
<path d="M94.8264 9.93557H77.2534L63.1528 2.00574C62.5893 1.69051 61.8952 1.69541 61.3366 2.02044C60.7796 2.34384 60.4333 2.94654 60.4333 3.59334V5.03557H47.3667V9.93557H3.17357C1.42427 9.93557 0 11.3598 0 13.1091V85.1604C0 86.9097 1.42427 88.3339 3.17357 88.3339H3.26667V94.8673H19.6V88.3339H47.3667V93.2339H60.4333V94.4034C60.4333 95.0502 60.7796 95.6529 61.3382 95.9796C61.6208 96.1462 61.9393 96.2278 62.2578 96.2278C62.5665 96.2278 62.8768 96.1494 63.1528 95.9943L76.7732 88.3339H78.4V94.8673H94.7333V88.3339H94.8264C96.5757 88.3339 98 86.9097 98 85.1604V13.1091C98 11.3598 96.5757 9.93557 94.8264 9.93557ZM16.3333 91.6022H6.53333V88.3356H16.3333V91.6022ZM19.6 85.1277V85.0689H3.26667V85.162L3.17357 13.2022H47.3667V16.4689H10.3651C8.25323 16.4689 6.53333 18.1872 6.53333 20.2991V77.9704C6.53333 80.0823 8.25323 81.8022 10.3651 81.8022H47.3667V85.0722L19.6 85.1277ZM47.3667 24.6356V34.4356V44.2356V54.0356V63.8356V73.6356V78.5356H42.4667C42.4667 77.634 41.7349 76.9022 40.8333 76.9022C39.9317 76.9022 39.2 77.634 39.2 78.5356H32.6667C32.6667 77.634 31.9349 76.9022 31.0333 76.9022C30.1317 76.9022 29.4 77.634 29.4 78.5356H22.8667C22.8667 77.634 22.1349 76.9022 21.2333 76.9022C20.3317 76.9022 19.6 77.634 19.6 78.5356H13.0667C13.0667 77.634 12.3349 76.9022 11.4333 76.9022C10.6428 76.9022 10.0156 77.4739 9.8637 78.2187C9.82613 78.1419 9.8 78.0603 9.8 77.9704V68.7356V58.9356V49.1356V39.3356V29.5356V20.3007C9.8 20.2109 9.82613 20.1292 9.8637 20.0524C10.0156 20.7972 10.6428 21.3689 11.4333 21.3689C12.3349 21.3689 13.0667 20.6372 13.0667 19.7356H19.6C19.6 20.6372 20.3317 21.3689 21.2333 21.3689C22.1349 21.3689 22.8667 20.6372 22.8667 19.7356H29.4C29.4 20.6372 30.1317 21.3689 31.0333 21.3689C31.9349 21.3689 32.6667 20.6372 32.6667 19.7356H39.2C39.2 20.6372 39.9317 21.3689 40.8333 21.3689C41.7349 21.3689 42.4667 20.6372 42.4667 19.7356H47.3667V24.6356ZM50.6333 89.9689V88.3356V81.8022V16.4689V9.93557V8.30224H60.4333V89.9689H50.6333ZM63.7 6.05967L70.591 9.93557H70.3509L86.5667 19.0577V24.6356C85.6634 24.6356 84.9333 25.3657 84.9333 26.2689C84.9333 27.1721 85.6634 27.9022 86.5667 27.9022V29.5356C85.6634 29.5356 84.9333 30.2657 84.9333 31.1689C84.9333 32.0721 85.6634 32.8022 86.5667 32.8022V65.4689C85.6634 65.4689 84.9333 66.199 84.9333 67.1022C84.9333 68.0055 85.6634 68.7356 86.5667 68.7356V70.3689C85.6634 70.3689 84.9333 71.099 84.9333 72.0022C84.9333 72.9055 85.6634 73.6356 86.5667 73.6356V79.0778L63.7 91.9403V6.05967ZM91.4667 91.6022H81.6667V88.3356H91.4667V91.6022ZM94.7333 85.0689H82.8198L89.8333 81.1244V80.9888V73.6356H91.4667C92.3699 73.6356 93.1 72.9055 93.1 72.0022C93.1 71.099 92.3699 70.3689 91.4667 70.3689H89.8333V68.7356H91.4667C92.3699 68.7356 93.1 68.0055 93.1 67.1022C93.1 66.199 92.3699 65.4689 91.4667 65.4689H89.8333V32.8022H91.4667C92.3699 32.8022 93.1 32.0721 93.1 31.1689C93.1 30.2657 92.3699 29.5356 91.4667 29.5356H89.8333V27.9022H91.4667C92.3699 27.9022 93.1 27.1721 93.1 26.2689C93.1 25.3657 92.3699 24.6356 91.4667 24.6356H89.8333V17.1467V17.0112L83.0027 13.1696L94.7333 13.1091L94.8264 85.0689H94.7333Z" fill="#DB0011"/>
<path d="M55.5332 13.065C56.4353 13.065 57.1666 12.3338 57.1666 11.4317C57.1666 10.5296 56.4353 9.79838 55.5332 9.79838C54.6312 9.79838 53.8999 10.5296 53.8999 11.4317C53.8999 12.3338 54.6312 13.065 55.5332 13.065Z" fill="#DB0011"/>
<path d="M55.5332 22.865C56.4353 22.865 57.1666 22.1338 57.1666 21.2317C57.1666 20.3296 56.4353 19.5984 55.5332 19.5984C54.6312 19.5984 53.8999 20.3296 53.8999 21.2317C53.8999 22.1338 54.6312 22.865 55.5332 22.865Z" fill="#DB0011"/>
<path d="M55.5332 78.3984C56.4353 78.3984 57.1666 77.6671 57.1666 76.765C57.1666 75.863 56.4353 75.1317 55.5332 75.1317C54.6312 75.1317 53.8999 75.863 53.8999 76.765C53.8999 77.6671 54.6312 78.3984 55.5332 78.3984Z" fill="#DB0011"/>
<path d="M55.5332 68.5984C56.4353 68.5984 57.1666 67.8671 57.1666 66.965C57.1666 66.063 56.4353 65.3317 55.5332 65.3317C54.6312 65.3317 53.8999 66.063 53.8999 66.965C53.8999 67.8671 54.6312 68.5984 55.5332 68.5984Z" fill="#DB0011"/>
<path d="M55.5332 32.665C56.4353 32.665 57.1666 31.9338 57.1666 31.0317C57.1666 30.1296 56.4353 29.3984 55.5332 29.3984C54.6312 29.3984 53.8999 30.1296 53.8999 31.0317C53.8999 31.9338 54.6312 32.665 55.5332 32.665Z" fill="#DB0011"/>
<path d="M55.5332 88.1984C56.4353 88.1984 57.1666 87.4671 57.1666 86.565C57.1666 85.663 56.4353 84.9317 55.5332 84.9317C54.6312 84.9317 53.8999 85.663 53.8999 86.565C53.8999 87.4671 54.6312 88.1984 55.5332 88.1984Z" fill="#DB0011"/>
<path d="M66.9666 57.1667C66.0634 57.1667 65.3333 57.8968 65.3333 58.8C65.3333 59.7032 66.0634 60.4333 66.9666 60.4333C70.5795 60.4333 73.5179 57.495 73.5179 53.882V44.1163C73.5179 40.5034 70.5795 37.5667 66.9666 37.5667C66.0634 37.5667 65.3333 38.2968 65.3333 39.2C65.3333 40.1032 66.0634 40.8333 66.9666 40.8333C68.7763 40.8333 70.2512 42.3066 70.2512 44.118V53.8837C70.2512 55.6918 68.7763 57.1667 66.9666 57.1667Z" fill="#DB0011"/>
<path d="M66.9666 31.0333C66.0634 31.0333 65.3333 31.7634 65.3333 32.6667C65.3333 33.5699 66.0634 34.3 66.9666 34.3C72.3794 34.3 76.7846 38.7035 76.7846 44.118V53.8837C76.7846 59.2949 72.3794 63.7 66.9666 63.7C66.0634 63.7 65.3333 64.4301 65.3333 65.3333C65.3333 66.2366 66.0634 66.9667 66.9666 66.9667C74.181 66.9667 80.0512 61.0965 80.0512 53.882V44.1163C80.0512 36.9019 74.181 31.0333 66.9666 31.0333Z" fill="#DB0011"/>
<path d="M21.2334 31.1689C22.1355 31.1689 22.8668 30.4376 22.8668 29.5356C22.8668 28.6335 22.1355 27.9022 21.2334 27.9022C20.3314 27.9022 19.6001 28.6335 19.6001 29.5356C19.6001 30.4376 20.3314 31.1689 21.2334 31.1689Z" fill="#DB0011"/>
<path d="M26.1333 26.2689C27.0354 26.2689 27.7667 25.5376 27.7667 24.6356C27.7667 23.7335 27.0354 23.0022 26.1333 23.0022C25.2313 23.0022 24.5 23.7335 24.5 24.6356C24.5 25.5376 25.2313 26.2689 26.1333 26.2689Z" fill="#DB0011"/>
<path d="M26.1333 36.0689C27.0354 36.0689 27.7667 35.3376 27.7667 34.4356C27.7667 33.5335 27.0354 32.8022 26.1333 32.8022C25.2313 32.8022 24.5 33.5335 24.5 34.4356C24.5 35.3376 25.2313 36.0689 26.1333 36.0689Z" fill="#DB0011"/>
<path d="M31.0332 31.1689C31.9353 31.1689 32.6666 30.4376 32.6666 29.5356C32.6666 28.6335 31.9353 27.9022 31.0332 27.9022C30.1312 27.9022 29.3999 28.6335 29.3999 29.5356C29.3999 30.4376 30.1312 31.1689 31.0332 31.1689Z" fill="#DB0011"/>
<path d="M11.4334 31.1689C12.3354 31.1689 13.0667 30.4376 13.0667 29.5356C13.0667 28.6335 12.3354 27.9022 11.4334 27.9022C10.5313 27.9022 9.80005 28.6335 9.80005 29.5356C9.80005 30.4376 10.5313 31.1689 11.4334 31.1689Z" fill="#DB0011"/>
<path d="M16.3333 26.2689C17.2353 26.2689 17.9666 25.5376 17.9666 24.6356C17.9666 23.7335 17.2353 23.0022 16.3333 23.0022C15.4312 23.0022 14.7 23.7335 14.7 24.6356C14.7 25.5376 15.4312 26.2689 16.3333 26.2689Z" fill="#DB0011"/>
<path d="M16.3333 36.0689C17.2353 36.0689 17.9666 35.3376 17.9666 34.4356C17.9666 33.5335 17.2353 32.8022 16.3333 32.8022C15.4312 32.8022 14.7 33.5335 14.7 34.4356C14.7 35.3376 15.4312 36.0689 16.3333 36.0689Z" fill="#DB0011"/>
<path d="M35.9334 26.2689C36.8354 26.2689 37.5667 25.5376 37.5667 24.6356C37.5667 23.7335 36.8354 23.0022 35.9334 23.0022C35.0313 23.0022 34.3 23.7335 34.3 24.6356C34.3 25.5376 35.0313 26.2689 35.9334 26.2689Z" fill="#DB0011"/>
<path d="M35.9334 36.0689C36.8354 36.0689 37.5667 35.3376 37.5667 34.4356C37.5667 33.5335 36.8354 32.8022 35.9334 32.8022C35.0313 32.8022 34.3 33.5335 34.3 34.4356C34.3 35.3376 35.0313 36.0689 35.9334 36.0689Z" fill="#DB0011"/>
<path d="M40.8333 31.1689C41.7353 31.1689 42.4666 30.4376 42.4666 29.5356C42.4666 28.6335 41.7353 27.9022 40.8333 27.9022C39.9312 27.9022 39.2 28.6335 39.2 29.5356C39.2 30.4376 39.9312 31.1689 40.8333 31.1689Z" fill="#DB0011"/>
<path d="M21.2334 40.9689C22.1355 40.9689 22.8668 40.2376 22.8668 39.3356C22.8668 38.4335 22.1355 37.7022 21.2334 37.7022C20.3314 37.7022 19.6001 38.4335 19.6001 39.3356C19.6001 40.2376 20.3314 40.9689 21.2334 40.9689Z" fill="#DB0011"/>
<path d="M31.0332 40.9689C31.9353 40.9689 32.6666 40.2376 32.6666 39.3356C32.6666 38.4335 31.9353 37.7022 31.0332 37.7022C30.1312 37.7022 29.3999 38.4335 29.3999 39.3356C29.3999 40.2376 30.1312 40.9689 31.0332 40.9689Z" fill="#DB0011"/>
<path d="M11.4334 40.9689C12.3354 40.9689 13.0667 40.2376 13.0667 39.3356C13.0667 38.4335 12.3354 37.7022 11.4334 37.7022C10.5313 37.7022 9.80005 38.4335 9.80005 39.3356C9.80005 40.2376 10.5313 40.9689 11.4334 40.9689Z" fill="#DB0011"/>
<path d="M40.8333 40.9689C41.7353 40.9689 42.4666 40.2376 42.4666 39.3356C42.4666 38.4335 41.7353 37.7022 40.8333 37.7022C39.9312 37.7022 39.2 38.4335 39.2 39.3356C39.2 40.2376 39.9312 40.9689 40.8333 40.9689Z" fill="#DB0011"/>
<path d="M45.7334 26.2689C46.6355 26.2689 47.3668 25.5376 47.3668 24.6356C47.3668 23.7335 46.6355 23.0022 45.7334 23.0022C44.8314 23.0022 44.1001 23.7335 44.1001 24.6356C44.1001 25.5376 44.8314 26.2689 45.7334 26.2689Z" fill="#DB0011"/>
<path d="M45.7334 36.0689C46.6355 36.0689 47.3668 35.3376 47.3668 34.4356C47.3668 33.5335 46.6355 32.8022 45.7334 32.8022C44.8314 32.8022 44.1001 33.5335 44.1001 34.4356C44.1001 35.3376 44.8314 36.0689 45.7334 36.0689Z" fill="#DB0011"/>
<path d="M21.2334 50.7689C22.1355 50.7689 22.8668 50.0376 22.8668 49.1356C22.8668 48.2335 22.1355 47.5022 21.2334 47.5022C20.3314 47.5022 19.6001 48.2335 19.6001 49.1356C19.6001 50.0376 20.3314 50.7689 21.2334 50.7689Z" fill="#DB0011"/>
<path d="M26.1333 45.8689C27.0354 45.8689 27.7667 45.1376 27.7667 44.2356C27.7667 43.3335 27.0354 42.6022 26.1333 42.6022C25.2313 42.6022 24.5 43.3335 24.5 44.2356C24.5 45.1376 25.2313 45.8689 26.1333 45.8689Z" fill="#DB0011"/>
<path d="M26.1333 55.6689C27.0354 55.6689 27.7667 54.9376 27.7667 54.0356C27.7667 53.1335 27.0354 52.4022 26.1333 52.4022C25.2313 52.4022 24.5 53.1335 24.5 54.0356C24.5 54.9376 25.2313 55.6689 26.1333 55.6689Z" fill="#DB0011"/>
<path d="M31.0332 50.7689C31.9353 50.7689 32.6666 50.0376 32.6666 49.1356C32.6666 48.2335 31.9353 47.5022 31.0332 47.5022C30.1312 47.5022 29.3999 48.2335 29.3999 49.1356C29.3999 50.0376 30.1312 50.7689 31.0332 50.7689Z" fill="#DB0011"/>
<path d="M11.4334 50.7689C12.3354 50.7689 13.0667 50.0376 13.0667 49.1356C13.0667 48.2335 12.3354 47.5022 11.4334 47.5022C10.5313 47.5022 9.80005 48.2335 9.80005 49.1356C9.80005 50.0376 10.5313 50.7689 11.4334 50.7689Z" fill="#DB0011"/>
<path d="M16.3333 45.8689C17.2353 45.8689 17.9666 45.1376 17.9666 44.2356C17.9666 43.3335 17.2353 42.6022 16.3333 42.6022C15.4312 42.6022 14.7 43.3335 14.7 44.2356C14.7 45.1376 15.4312 45.8689 16.3333 45.8689Z" fill="#DB0011"/>
<path d="M16.3333 55.6689C17.2353 55.6689 17.9666 54.9376 17.9666 54.0356C17.9666 53.1335 17.2353 52.4022 16.3333 52.4022C15.4312 52.4022 14.7 53.1335 14.7 54.0356C14.7 54.9376 15.4312 55.6689 16.3333 55.6689Z" fill="#DB0011"/>
<path d="M35.9334 45.8689C36.8354 45.8689 37.5667 45.1376 37.5667 44.2356C37.5667 43.3335 36.8354 42.6022 35.9334 42.6022C35.0313 42.6022 34.3 43.3335 34.3 44.2356C34.3 45.1376 35.0313 45.8689 35.9334 45.8689Z" fill="#DB0011"/>
<path d="M35.9334 55.6689C36.8354 55.6689 37.5667 54.9376 37.5667 54.0356C37.5667 53.1335 36.8354 52.4022 35.9334 52.4022C35.0313 52.4022 34.3 53.1335 34.3 54.0356C34.3 54.9376 35.0313 55.6689 35.9334 55.6689Z" fill="#DB0011"/>
<path d="M40.8333 50.7689C41.7353 50.7689 42.4666 50.0376 42.4666 49.1356C42.4666 48.2335 41.7353 47.5022 40.8333 47.5022C39.9312 47.5022 39.2 48.2335 39.2 49.1356C39.2 50.0376 39.9312 50.7689 40.8333 50.7689Z" fill="#DB0011"/>
<path d="M21.2334 60.5689C22.1355 60.5689 22.8668 59.8376 22.8668 58.9356C22.8668 58.0335 22.1355 57.3022 21.2334 57.3022C20.3314 57.3022 19.6001 58.0335 19.6001 58.9356C19.6001 59.8376 20.3314 60.5689 21.2334 60.5689Z" fill="#DB0011"/>
<path d="M31.0332 60.5689C31.9353 60.5689 32.6666 59.8376 32.6666 58.9356C32.6666 58.0335 31.9353 57.3022 31.0332 57.3022C30.1312 57.3022 29.3999 58.0335 29.3999 58.9356C29.3999 59.8376 30.1312 60.5689 31.0332 60.5689Z" fill="#DB0011"/>
<path d="M11.4334 60.5689C12.3354 60.5689 13.0667 59.8376 13.0667 58.9356C13.0667 58.0335 12.3354 57.3022 11.4334 57.3022C10.5313 57.3022 9.80005 58.0335 9.80005 58.9356C9.80005 59.8376 10.5313 60.5689 11.4334 60.5689Z" fill="#DB0011"/>
<path d="M40.8333 60.5689C41.7353 60.5689 42.4666 59.8376 42.4666 58.9356C42.4666 58.0335 41.7353 57.3022 40.8333 57.3022C39.9312 57.3022 39.2 58.0335 39.2 58.9356C39.2 59.8376 39.9312 60.5689 40.8333 60.5689Z" fill="#DB0011"/>
<path d="M45.7334 45.8689C46.6355 45.8689 47.3668 45.1376 47.3668 44.2356C47.3668 43.3335 46.6355 42.6022 45.7334 42.6022C44.8314 42.6022 44.1001 43.3335 44.1001 44.2356C44.1001 45.1376 44.8314 45.8689 45.7334 45.8689Z" fill="#DB0011"/>
<path d="M45.7334 55.6689C46.6355 55.6689 47.3668 54.9376 47.3668 54.0356C47.3668 53.1335 46.6355 52.4022 45.7334 52.4022C44.8314 52.4022 44.1001 53.1335 44.1001 54.0356C44.1001 54.9376 44.8314 55.6689 45.7334 55.6689Z" fill="#DB0011"/>
<path d="M21.2334 70.3689C22.1355 70.3689 22.8668 69.6376 22.8668 68.7356C22.8668 67.8335 22.1355 67.1022 21.2334 67.1022C20.3314 67.1022 19.6001 67.8335 19.6001 68.7356C19.6001 69.6376 20.3314 70.3689 21.2334 70.3689Z" fill="#DB0011"/>
<path d="M26.1333 65.4689C27.0354 65.4689 27.7667 64.7376 27.7667 63.8356C27.7667 62.9335 27.0354 62.2022 26.1333 62.2022C25.2313 62.2022 24.5 62.9335 24.5 63.8356C24.5 64.7376 25.2313 65.4689 26.1333 65.4689Z" fill="#DB0011"/>
<path d="M26.1333 75.2689C27.0354 75.2689 27.7667 74.5376 27.7667 73.6356C27.7667 72.7335 27.0354 72.0022 26.1333 72.0022C25.2313 72.0022 24.5 72.7335 24.5 73.6356C24.5 74.5376 25.2313 75.2689 26.1333 75.2689Z" fill="#DB0011"/>
<path d="M31.0332 70.3689C31.9353 70.3689 32.6666 69.6376 32.6666 68.7356C32.6666 67.8335 31.9353 67.1022 31.0332 67.1022C30.1312 67.1022 29.3999 67.8335 29.3999 68.7356C29.3999 69.6376 30.1312 70.3689 31.0332 70.3689Z" fill="#DB0011"/>
<path d="M11.4334 70.3689C12.3354 70.3689 13.0667 69.6376 13.0667 68.7356C13.0667 67.8335 12.3354 67.1022 11.4334 67.1022C10.5313 67.1022 9.80005 67.8335 9.80005 68.7356C9.80005 69.6376 10.5313 70.3689 11.4334 70.3689Z" fill="#DB0011"/>
<path d="M16.3333 65.4689C17.2353 65.4689 17.9666 64.7376 17.9666 63.8356C17.9666 62.9335 17.2353 62.2022 16.3333 62.2022C15.4312 62.2022 14.7 62.9335 14.7 63.8356C14.7 64.7376 15.4312 65.4689 16.3333 65.4689Z" fill="#DB0011"/>
<path d="M16.3333 75.2689C17.2353 75.2689 17.9666 74.5376 17.9666 73.6356C17.9666 72.7335 17.2353 72.0022 16.3333 72.0022C15.4312 72.0022 14.7 72.7335 14.7 73.6356C14.7 74.5376 15.4312 75.2689 16.3333 75.2689Z" fill="#DB0011"/>
<path d="M35.9334 65.4689C36.8354 65.4689 37.5667 64.7376 37.5667 63.8356C37.5667 62.9335 36.8354 62.2022 35.9334 62.2022C35.0313 62.2022 34.3 62.9335 34.3 63.8356C34.3 64.7376 35.0313 65.4689 35.9334 65.4689Z" fill="#DB0011"/>
<path d="M35.9334 75.2689C36.8354 75.2689 37.5667 74.5376 37.5667 73.6356C37.5667 72.7335 36.8354 72.0022 35.9334 72.0022C35.0313 72.0022 34.3 72.7335 34.3 73.6356C34.3 74.5376 35.0313 75.2689 35.9334 75.2689Z" fill="#DB0011"/>
<path d="M40.8333 70.3689C41.7353 70.3689 42.4666 69.6376 42.4666 68.7356C42.4666 67.8335 41.7353 67.1022 40.8333 67.1022C39.9312 67.1022 39.2 67.8335 39.2 68.7356C39.2 69.6376 39.9312 70.3689 40.8333 70.3689Z" fill="#DB0011"/>
<path d="M45.7334 65.4689C46.6355 65.4689 47.3668 64.7376 47.3668 63.8356C47.3668 62.9335 46.6355 62.2022 45.7334 62.2022C44.8314 62.2022 44.1001 62.9335 44.1001 63.8356C44.1001 64.7376 44.8314 65.4689 45.7334 65.4689Z" fill="#DB0011"/>
<path d="M45.7334 75.2689C46.6355 75.2689 47.3668 74.5376 47.3668 73.6356C47.3668 72.7335 46.6355 72.0022 45.7334 72.0022C44.8314 72.0022 44.1001 72.7335 44.1001 73.6356C44.1001 74.5376 44.8314 75.2689 45.7334 75.2689Z" fill="#DB0011"/>
</svg>
