<svg width="98" height="98" viewBox="0 0 98 98" fill="none" xmlns="http://www.w3.org/2000/svg">
<path d="M96.3667 9.8H65.3333C64.4313 9.8 63.7 10.5313 63.7 11.4333V16.3333H58.8C57.898 16.3333 57.1667 17.0647 57.1667 17.9667V36.5573L45.3479 42.4667H1.63333C0.731325 42.4667 0 43.198 0 44.1V86.5667C0 87.4687 0.731325 88.2 1.63333 88.2H34.3C35.202 88.2 35.9333 87.4687 35.9333 86.5667V81.9607L53.6305 84.9105C53.7195 84.9254 53.8098 84.9329 53.9 84.9333H78.4C80.7236 84.926 82.8672 83.6812 84.0252 81.6667H89.8333C90.7353 81.6667 91.4667 80.9353 91.4667 80.0333V75.1333H96.3667C97.2687 75.1333 98 74.402 98 73.5V11.4333C98 10.5313 97.2687 9.8 96.3667 9.8ZM32.6667 84.9333H3.26667V45.7333H32.6667V84.9333ZM66.9667 13.0667H94.7333V48.8105C94.7031 47.7803 94.4275 46.7423 93.8801 45.785C93.3054 44.7797 92.472 43.9463 91.4667 43.3715V17.9667C91.4667 17.0647 90.7353 16.3333 89.8333 16.3333H66.9667V13.0667ZM60.4333 19.6H88.2V42.4667H84.9333V27.7667C84.9333 26.8647 84.202 26.1333 83.3 26.1333C82.398 26.1333 81.6667 25.402 81.6667 24.5C81.6667 23.598 80.9353 22.8667 80.0333 22.8667H68.6C67.698 22.8667 66.9667 23.598 66.9667 24.5C66.9667 25.402 66.2353 26.1333 65.3333 26.1333C64.4313 26.1333 63.7 26.8647 63.7 27.7667V42.4667H60.4333V19.6ZM81.6667 29.1207V42.4667H66.9667V29.1207C68.3605 28.6242 69.4575 27.5272 69.954 26.1333H78.6793C79.1758 27.5272 80.2728 28.6242 81.6667 29.1207ZM88.2 78.4H84.9333C84.9346 77.1056 84.5495 75.8402 83.8276 74.7658C87.2325 73.5717 89.0246 69.8434 87.8305 66.4385C87.6481 65.9185 87.4007 65.4238 87.0942 64.9658C87.4787 64.8268 87.849 64.6512 88.2 64.4415V78.4ZM88.2 52.2667H81.6667C80.7647 52.2667 80.0333 52.998 80.0333 53.9C80.0333 54.802 80.7647 55.5333 81.6667 55.5333H84.9333C86.7376 55.5333 88.2 56.9958 88.2 58.8C88.2 60.6042 86.7376 62.0667 84.9333 62.0667H78.4C77.498 62.0667 76.7667 62.798 76.7667 63.7C76.7667 64.602 77.498 65.3333 78.4 65.3333H81.6667C83.4709 65.3333 84.9333 66.7958 84.9333 68.6C84.9333 70.4042 83.4709 71.8667 81.6667 71.8667H75.1333C74.2313 71.8667 73.5 72.598 73.5 73.5C73.5 74.402 74.2313 75.1333 75.1333 75.1333H78.4C80.2042 75.1333 81.6667 76.5958 81.6667 78.4C81.6667 80.2042 80.2042 81.6667 78.4 81.6667H54.0356L35.9333 78.6499V45.7333H45.7333C45.9867 45.7335 46.2366 45.6749 46.4634 45.5618L57.1667 40.2094V44.1C57.1667 45.002 57.898 45.7333 58.8 45.7333H88.2C90.0042 45.7333 91.4667 47.1958 91.4667 49C91.4667 50.8042 90.0042 52.2667 88.2 52.2667ZM91.4667 71.8667V54.6415C93.4998 53.4792 94.6653 51.3839 94.7333 49.2027V71.8667H91.4667Z" fill="#DB0011"/>
<path d="M22.8666 68.6C19.2583 68.6 16.3333 71.5251 16.3333 75.1333C16.3333 78.7416 19.2583 81.6667 22.8666 81.6667C26.4748 81.6667 29.3999 78.7416 29.3999 75.1333C29.3999 71.5251 26.4748 68.6 22.8666 68.6ZM22.8666 78.4C21.0624 78.4 19.5999 76.9376 19.5999 75.1333C19.5999 73.3291 21.0624 71.8667 22.8666 71.8667C24.6708 71.8667 26.1333 73.3291 26.1333 75.1333C26.1333 76.9376 24.6708 78.4 22.8666 78.4Z" fill="#DB0011"/>
</svg>
